<svg xmlns="http://www.w3.org/2000/svg" xmlns:xlink="http://www.w3.org/1999/xlink" width="300" height="300" viewBox="-13039346.130084 3859411.047316003 1110.798367999494 1638.775367998518" preserveAspectRatio="xMinYMin meet"><g transform="matrix(1,0,0,-1,0,7720460.870000005)"><polyline fill="none" stroke="#66cc99" stroke-width="10.92516911999012" points="-13039282.2064,3859531.026299998 -13039273.1896,3859695.7782000005 -13039272.8556,3859701.336199999 -13039269.738699999,3859758.1066000015 -13039268.0689,3859786.5582000017 -13039263.059500001,3859872.1777999997 -13039261.501,3859900.7619000003 -13039260.0539,3859926.9641000032 -13039256.0464,3860005.7031999975 -13039255.267099999,3860022.112800002 -13039255.0445,3860032.0380000025 -13039254.5992,3860059.034500003 -13039254.5992,3860078.6202000007 -13039254.7105,3860218.764899999 -13039254.821899999,3860265.612499997 -13039254.9332,3860313.386699997 -13039255.267099999,3860456.9750000015 -13039255.3785,3860504.882299997 -13039255.489799999,3860552.789800003 -13039255.8237,3860696.5133000016 -13039256.0464,3860744.5539000034 -13039256.0464,3860790.741899997 -13039256.3803,3860929.5715999976 -13039256.4916,3860975.8927000016 -13039256.4916,3860978.407300003 -13039256.4916,3860986.3479999974 -13039256.603,3860988.994900003 -13039238.1239,3860988.8625999987 -13039188.1415,3860988.8625999987 -13039183.0208,3860988.8625999987 -13039164.653099999,3860989.1273000017 -13039157.7513,3860988.994900003 -13039137.3798,3860988.597900003 -13039130.5893,3860988.730300002 -13039117.1196,3860988.597900003 -13039076.7107,3860988.465599999 -13039070.4768,3860988.465599999 -13039063.241,3860988.465599999 -13039053.1109,3860988.2009000033 -13039022.9434,3860988.2009000033 -13039012.9246,3860988.2009000033 -13039002.9058,3860988.2009000033 -13038972.960900001,3860988.2009000033 -13038963.0535,3860988.3332 -13038951.031,3860988.0684999973 -13038949.138500001,3860988.0684999973 -13038907.6164,3860988.0684999973 -13038893.8127,3860988.0684999973 -13038887.022300001,3860987.8038000017 -13038866.873399999,3860987.6714999974 -13038860.1943,3860987.6714999974 -13038842.6058,3860987.539099999 -13038831.9191,3860987.539099999 -13038789.840300001,3860987.406800002 -13038772.251899999,3860987.406800002 -13038772.1405,3860985.9509999976 -13038772.1405,3860981.7158999965 -13038772.1405,3860980.3923999965 -13038748.429499999,3860980.2600999996 -13038712.028,3860980.2600999996 -13038677.7416,3860980.2600999996 -13038654.1419,3860980.3923999965 -13038629.9856,3860980.2600999996 -13038593.2501,3860980.1278000027 -13038557.6279,3860979.9953999966 -13038533.582899999,3860980.2600999996 -13038509.6492,3860979.9953999966 -13038473.804299999,3860979.9953999966 -13038437.9594,3860979.9953999966 -13038414.1371,3860980.1278000027 -13038390.425999999,3860979.9953999966 -13038354.024500001,3860979.9953999966 -13038319.6268,3860979.9953999966 -13038296.0271,3860980.1278000027 -13038296.249699999,3860933.1450000033 -13038297.029,3860792.3301 -13038297.3629,3860745.4804000035 -13038297.5856,3860697.307400003 -13038298.6987,3860553.186800003 -13038299.0327,3860505.411600001 -13038299.144000001,3860481.3255999982 -13038299.5893,3860443.343999997 -13038299.811900001,3860409.3325999975 -13038300.1459,3860385.3791000023 -13038300.3685,3860361.0287000015 -13038300.7025,3860324.9001 -13038301.259100001,3860288.3747000024 -13038301.7044,3860264.156800002 -13038301.8157,3860240.335900001 -13038302.5949,3860168.8737000003 -13038302.8176,3860145.1854000017 -13038302.9289,3860122.291199997 -13038303.4855,3860054.4026999995 -13038303.819400001,3860033.626000002 -13038303.819400001,3860031.905699998 -13038304.5987,3860012.849399999 -13038306.7138,3859973.678199999 -13038307.493,3859960.8417000026 -13038307.6043,3859946.1525000036 -13038308.3835,3859902.217600003 -13038308.717500001,3859887.6608000025 -13038308.6062,3859882.7644999996 -13038308.6062,3859881.4411000013 -13038309.2741,3859868.472400002 -13038309.6081,3859863.7084000036 -13038310.498599999,3859844.652400002 -13038313.1703,3859788.0138000026 -13038314.1722,3859769.0901999995 -13038314.2835,3859765.1203000024 -13038314.9514,3859753.8720000014 -13038315.173999999,3859750.166699998 -13038316.3985,3859722.112300001 -13038320.5174,3859638.3464 -13038321.964499999,3859610.4245999977 -13038322.0758,3859606.454599999 -13038322.632399999,3859595.603500001 -13038322.8551,3859591.8982999995 -13038323.634300001,3859567.6818000004 -13038324.6362,3859540.5540999994 -13038326.0833,3859495.6943000033 -13038326.862599999,3859471.742700003 -13038375.063900001,3859472.0073999986 -13038520.001899999,3859472.8012999967 -13038568.3146,3859473.0659999996 -13038615.7367,3859473.1982999966 -13038758.002999999,3859473.8599999994 -13038805.425099999,3859474.2569999993 -13038818.338100001,3859474.2569999993 -13038857.3,3859474.2569999993 -13038870.3243,3859474.5216000006 -13038890.3618,3859474.5216000006 -13038950.474399999,3859474.9186000004 -13038970.5119,3859475.0508999974 -13038988.7683,3859475.0508999974 -13039043.5375,3859475.3156000003 -13039061.7939,3859475.4478999972 -13039063.575,3859475.3156000003 -13039069.2523,3859475.5803000033 -13039071.1447,3859475.7126 -13039113.8914,3859475.3156000003 -13039242.5767,3859474.5216000006 -13039285.434700001,3859474.2569999993 -13039282.2064,3859531.026299998" opacity="0.8" /></g></svg>